# Blender v2.82 (sub 7) OBJ File: ''
# www.blender.org
mtllib block2.mtl
o Concrete_Mesh
v -3.448072 1.032190 -0.103814
v -3.447611 1.017397 -0.122385
v -3.744581 0.000213 -0.280162
v -3.740539 0.093149 -0.282019
v -0.007449 0.000211 -0.285586
v -0.002174 0.089766 -0.271051
v -0.020258 0.092688 -0.285010
v -0.006635 0.920713 -0.117027
v -3.733653 0.294825 -0.125034
v -0.282490 1.031603 -0.104131
v -0.284636 0.294652 -0.126314
v -0.005444 0.293097 -0.121192
v -3.748646 0.289340 -0.111832
v -3.444968 0.876604 -0.127517
v -3.743565 0.920433 -0.117152
v -0.287037 1.016868 -0.122921
v -0.008704 0.000208 0.285829
v -3.734055 0.915582 0.122121
v -3.746506 0.922638 0.108205
v -3.448186 1.015834 0.123094
v -3.447438 1.032597 0.102248
v -3.745778 0.000212 0.279522
v -3.748105 0.090780 0.270458
v -3.730467 0.095191 0.284049
v -0.020337 0.092803 0.284975
v -0.002117 0.090500 0.270529
v -0.006282 0.920051 0.117010
v -3.744637 0.292662 0.121353
v -0.005441 0.293212 0.121168
v -3.447419 0.111981 0.278469
v -0.275392 1.024864 0.116899
v -0.284636 0.294652 0.126314
v -3.447427 0.294657 0.126314
v -3.444968 0.876604 0.125237
v -3.447418 0.114081 -0.280918
v -3.447428 0.300507 -0.132331
v -0.287095 0.876604 -0.128517
v -0.284645 0.113113 -0.279498
v -0.284633 0.299419 -0.135764
v -0.284645 0.113495 0.279941
v -3.447429 0.301872 0.135338
v -0.284630 0.295151 0.137453
v -0.287095 0.876604 0.131831
vt 0.050590 0.787645
vt 0.117891 0.841344
vt 0.049049 0.790117
vt 0.011247 0.246949
vt 0.984326 0.271645
vt 0.010260 0.271645
vt 0.985161 0.031682
vt 0.914351 0.041714
vt 0.914291 0.004839
vt 0.085195 0.004436
vt 0.085838 0.041714
vt 0.659328 0.846469
vt 0.446610 0.841682
vt 0.658173 0.841913
vt 0.347420 0.788849
vt 0.379419 0.788080
vt 0.377993 0.790484
vt 0.914352 0.509796
vt 0.985175 0.519781
vt 0.914997 0.547163
vt 0.447646 0.925059
vt 0.445790 0.921354
vt 0.658952 0.920272
vt 0.080235 0.612396
vt 0.080144 0.617123
vt 0.003702 0.614714
vt 0.378837 0.975788
vt 0.018691 0.787665
vt 0.085196 0.194177
vt 0.085196 0.241857
vt 0.010051 0.194174
vt 0.992312 0.614667
vt 0.919856 0.617150
vt 0.921069 0.612461
vt 0.914994 0.194177
vt 0.985310 0.194222
vt 0.983923 0.247421
vt 0.914994 0.242144
vt 0.010257 0.031676
vt 0.080401 0.558212
vt 0.003571 0.557017
vt 0.004114 0.553492
vt 0.080675 0.553215
vt 0.085196 0.357334
vt 0.010070 0.357303
vt 0.011277 0.304577
vt 0.085196 0.309113
vt 0.920912 0.555210
vt 0.018691 0.976744
vt 0.049201 0.973964
vt 0.050695 0.976392
vt 0.117951 0.922732
vt 0.010155 0.279865
vt 0.984472 0.279865
vt 0.347420 0.976268
vt 0.992356 0.555629
vt 0.983900 0.304092
vt 0.985316 0.357303
vt 0.914994 0.357333
vt 0.914994 0.309465
vt 0.010271 0.519830
vt 0.085839 0.509796
vt 0.330162 0.844151
vt 0.330195 0.919951
vt 0.085727 0.546701
vt 0.015770 0.764081
vt 0.015878 0.666115
vt 0.676590 0.665715
vt 0.676499 0.764810
vt 0.914994 0.192980
vt 0.085196 0.359129
vt 0.914994 0.357406
vt 0.720637 0.716179
vt 0.762044 0.747573
vt 0.761036 0.749519
vt 0.953874 0.749909
vt 0.911749 0.718594
vt 0.913260 0.716826
vt 0.784853 0.708574
vt 0.913200 0.706950
vt 0.913261 0.709203
vt 0.889444 0.749623
vt 0.784853 0.715998
vt 0.953577 0.675763
vn 0.2944 0.3236 -0.8992
vn 0.7959 0.2128 -0.5667
vn 0.8765 0.1744 -0.4487
vn -0.6353 0.2371 -0.7349
vn 0.5610 -0.5859 -0.5848
vn -0.5841 -0.5832 -0.5645
vn 0.6701 0.4550 -0.5864
vn 0.0183 0.0220 -0.9996
vn 0.0818 0.4725 -0.8775
vn -0.0870 0.4776 -0.8742
vn -0.0149 0.0227 -0.9996
vn -0.7718 0.5367 0.3410
vn -0.7964 0.2018 0.5701
vn -0.3887 0.3081 0.8683
vn -0.5830 -0.5792 0.5698
vn -0.2982 0.3087 0.9032
vn -0.8759 0.1767 0.4489
vn 0.0205 0.0386 0.9990
vn 0.6697 0.4539 0.5877
vn 0.1482 0.7492 0.6455
vn -0.4114 0.3014 -0.8601
vn -0.9504 0.1013 -0.2939
vn -0.6648 0.4618 -0.5871
vn -0.1600 0.9369 -0.3107
vn -0.0176 0.3325 -0.9429
vn -0.0098 0.4075 -0.9131
vn 0.1733 0.9334 -0.3142
vn 0.6475 0.2601 -0.7163
vn 0.0138 0.4108 -0.9116
vn -0.1591 0.9345 0.3182
vn -0.0882 0.4792 0.8732
vn -0.6443 0.2598 0.7192
vn -0.0133 0.4606 0.8875
vn 0.5583 -0.5843 0.5889
vn 0.8778 0.1756 0.4456
vn 0.2979 0.3237 0.8980
vn 0.7972 0.2119 0.5653
vn 0.6479 0.2597 0.7160
vn 0.0131 0.4620 0.8868
vn -0.0087 0.0230 0.9997
vn 0.7863 0.2046 -0.5829
vn -0.7853 0.2063 0.5837
vn 0.7871 0.2031 0.5824
usemtl lambert3
s 1
f 7/1/1 12/2/2 6/3/3
f 4/4/4 5/5/5 3/6/6
f 8/7/7 37/8/8 16/9/9
f 2/10/10 37/8/8 14/11/11
f 19/12/12 28/13/13 18/14/14
f 22/15/15 24/16/16 23/17/17
f 24/16/16 28/13/13 23/17/17
f 43/18/18 27/19/19 31/20/20
f 9/21/21 13/22/22 15/23/23
f 1/24/24 2/25/10 15/26/23
f 13/22/22 9/21/21 4/27/4
f 7/1/1 6/3/3 5/28/5
f 36/29/25 35/30/26 4/4/4 9/31/21
f 8/32/7 16/33/9 10/34/27
f 11/35/28 12/36/2 7/37/1 38/38/29
f 11/35/28 37/8/8 8/7/7 12/36/2
f 36/29/25 9/31/21 15/39/23 14/11/11
f 2/25/10 1/24/24 10/34/27 16/33/9
f 15/39/23 2/10/10 14/11/11
f 21/40/30 19/41/12 18/42/14 20/43/31
f 2/10/10 16/9/9 37/8/8
f 33/44/32 28/45/13 24/46/16 30/47/33
f 21/40/30 20/43/31 31/48/20
f 17/49/34 26/50/35 25/51/36
f 25/51/36 26/50/35 29/52/37
f 1/24/24 15/26/23 19/41/12 21/40/30
f 5/28/5 6/3/3 26/50/35 17/49/34
f 24/46/16 22/53/15 17/54/34
f 4/27/4 3/55/6 22/15/15 23/17/17
f 8/32/7 10/34/27 31/48/20 27/56/19
f 25/57/36 29/58/37 32/59/38 40/60/39
f 32/59/38 29/58/37 27/19/19 43/18/18
f 18/61/14 28/45/13 33/44/32 34/62/40
f 12/2/2 8/63/7 27/64/19 29/52/37
f 19/12/12 15/23/23 13/22/22 28/13/13
f 6/3/3 12/2/2 29/52/37 26/50/35
f 13/22/22 4/27/4 23/17/17 28/13/13
f 31/20/20 20/65/31 34/62/40 43/18/18
f 34/62/40 20/65/31 18/61/14
f 10/34/27 1/24/24 21/40/30 31/48/20
f 22/66/15 3/67/6 5/68/5 17/69/34
usemtl lambert1
f 7/37/1 5/5/5 4/4/4
f 38/38/29 36/29/25 39/70/41
f 17/54/34 25/57/36 24/46/16
f 34/62/40 41/71/42 43/18/18
f 43/18/18 41/71/42 42/72/43
f 14/11/11 37/8/8 39/70/41 36/29/25
f 4/4/4 35/30/26 38/38/29 7/37/1
f 38/38/29 35/30/26 36/29/25
f 40/60/39 42/72/43 41/71/42 30/47/33
f 40/60/39 30/47/33 24/46/16 25/57/36
usemtl lambert2
f 38/73/29 39/74/41 11/75/28
f 30/76/33 41/77/42 33/78/32
f 43/79/18 42/80/43 32/81/38
f 37/82/8 11/75/28 39/74/41
f 34/83/40 33/78/32 41/77/42
f 40/84/39 32/81/38 42/80/43
o Bracket2_Mesh.002
v -0.803192 1.190808 0.007131
v -1.064917 0.948066 -0.025271
v -1.053554 1.192179 0.020294
v -1.111686 0.948042 0.050830
v -0.689047 0.948078 -0.000000
v -0.765674 1.227678 0.051620
v -1.119607 1.240859 0.043211
v -0.731092 1.269117 -0.011988
v -0.769865 1.210727 -0.048937
v -1.166238 0.948070 -0.016965
v -0.762013 0.948046 -0.047385
v -1.115405 1.264442 -0.035709
v -1.069581 1.207072 -0.037994
v -0.783219 0.948048 0.039301
vt 0.861936 0.969846
vt 0.852897 0.898572
vt 0.868135 0.898572
vt 0.890383 0.969338
vt 0.894992 0.898572
vt 0.899376 0.972161
vt 0.921000 0.869113
vt 0.920436 0.776824
vt 0.934609 0.775259
vt 0.919641 0.980843
vt 0.908800 0.898572
vt 0.923309 0.898572
vt 0.925352 0.960581
vt 0.935774 0.875595
vt 0.937295 0.959141
vt 0.937842 0.866928
vt 0.947243 0.949571
vt 0.831056 0.881523
vt 0.827052 0.786353
vt 0.840524 0.786592
vt 0.917843 0.895469
vt 0.917843 0.883933
vt 0.840205 0.874560
vt 0.843760 0.972674
vt 0.841775 0.902494
vt 0.851084 0.900882
vt 0.806554 0.885726
vt 0.801136 0.871329
vt 0.805243 0.787397
vt 0.721904 0.888955
vt 0.721904 0.781134
vt 0.721904 0.770242
vt 0.905854 0.981984
vt 0.830259 0.971818
vt 0.830529 0.901655
vt 0.917843 0.770242
vt 0.917843 0.782116
vt 0.878257 0.971019
vt 0.878673 0.898572
vt 0.874002 0.973391
vn 0.5681 -0.4682 0.6768
vn 0.0180 -0.0941 0.9954
vn 0.8229 -0.1662 -0.5434
vn -0.6937 -0.6166 0.3722
vn -0.6723 -0.1449 0.7259
vn 0.3201 0.3844 0.8659
vn -0.6271 0.4084 0.6632
vn 0.6964 0.6563 -0.2905
vn -0.9242 -0.0187 -0.3814
vn 0.9977 -0.0132 0.0668
vn -0.4815 0.6650 -0.5709
vn 0.0823 -0.0982 -0.9918
vn 0.2249 -0.3320 -0.9161
vn -0.2912 -0.0501 -0.9553
usemtl lambert5
s 1
f 46/85/44 47/86/45 45/87/46
f 44/88/47 57/89/48 49/90/49
f 50/91/50 49/92/49 51/93/51
f 50/94/50 53/95/52 47/96/45
f 49/97/49 48/98/53 51/99/51
f 50/91/50 51/93/51 55/100/54
f 48/98/53 52/101/55 51/99/51
f 55/102/54 51/103/51 52/104/55
f 53/105/52 55/102/54 45/106/46
f 55/102/54 52/104/55 56/107/56
f 46/108/44 44/109/47 49/110/49
f 50/111/50 46/112/44 49/113/49
f 46/112/44 50/111/50 47/114/45
f 49/113/49 57/115/48 48/116/53
f 50/94/50 55/117/54 53/95/52
f 44/109/47 46/108/44 56/118/56 52/119/55
f 48/120/53 54/121/57 52/104/55
f 45/106/46 55/102/54 56/107/56
f 44/88/47 52/122/55 54/123/57 57/89/48
f 45/87/46 56/124/56 46/85/44
o Bracket1_Mesh.005
v -2.730979 1.190808 0.007131
v -2.992705 0.948066 -0.025271
v -2.981341 1.192179 0.020294
v -3.039474 0.948042 0.050830
v -2.616834 0.948078 -0.000000
v -2.693461 1.227678 0.051620
v -3.047394 1.240859 0.043211
v -2.658879 1.269117 -0.011988
v -2.697652 1.210727 -0.048937
v -3.094026 0.948070 -0.016965
v -2.689801 0.948046 -0.047385
v -3.043192 1.264442 -0.035709
v -2.997368 1.207072 -0.037994
v -2.711006 0.948048 0.039301
vt 0.861936 0.969846
vt 0.852897 0.898572
vt 0.868135 0.898572
vt 0.890383 0.969338
vt 0.894992 0.898572
vt 0.899376 0.972161
vt 0.921000 0.869113
vt 0.920436 0.776824
vt 0.934609 0.775259
vt 0.919641 0.980843
vt 0.908800 0.898572
vt 0.923309 0.898572
vt 0.925352 0.960581
vt 0.935774 0.875595
vt 0.937295 0.959141
vt 0.937842 0.866928
vt 0.947243 0.949571
vt 0.831056 0.881523
vt 0.827052 0.786353
vt 0.840524 0.786592
vt 0.917843 0.895469
vt 0.917843 0.883933
vt 0.840205 0.874560
vt 0.843760 0.972674
vt 0.841775 0.902494
vt 0.851084 0.900882
vt 0.806554 0.885726
vt 0.801136 0.871329
vt 0.805243 0.787397
vt 0.721904 0.888955
vt 0.721904 0.781134
vt 0.721904 0.770242
vt 0.905854 0.981984
vt 0.830259 0.971818
vt 0.830529 0.901655
vt 0.917843 0.770242
vt 0.917843 0.782116
vt 0.878257 0.971019
vt 0.878673 0.898572
vt 0.874002 0.973391
vn 0.5681 -0.4682 0.6768
vn 0.0180 -0.0941 0.9954
vn 0.8229 -0.1662 -0.5434
vn -0.6937 -0.6166 0.3722
vn -0.6723 -0.1449 0.7259
vn 0.3201 0.3844 0.8659
vn -0.6271 0.4084 0.6632
vn 0.6964 0.6563 -0.2905
vn -0.9242 -0.0187 -0.3814
vn 0.9977 -0.0132 0.0668
vn -0.4815 0.6650 -0.5709
vn 0.0823 -0.0982 -0.9918
vn 0.2249 -0.3320 -0.9161
vn -0.2912 -0.0501 -0.9553
usemtl lambert5
s 1
f 60/125/58 61/126/59 59/127/60
f 58/128/61 71/129/62 63/130/63
f 64/131/64 63/132/63 65/133/65
f 64/134/64 67/135/66 61/136/59
f 63/137/63 62/138/67 65/139/65
f 64/131/64 65/133/65 69/140/68
f 62/138/67 66/141/69 65/139/65
f 69/142/68 65/143/65 66/144/69
f 67/145/66 69/142/68 59/146/60
f 69/142/68 66/144/69 70/147/70
f 60/148/58 58/149/61 63/150/63
f 64/151/64 60/152/58 63/153/63
f 60/152/58 64/151/64 61/154/59
f 63/153/63 71/155/62 62/156/67
f 64/134/64 69/157/68 67/135/66
f 58/149/61 60/148/58 70/158/70 66/159/69
f 62/160/67 68/161/71 66/144/69
f 59/146/60 69/142/68 70/147/70
f 58/128/61 66/162/69 68/163/71 71/129/62
f 59/127/60 70/164/70 60/125/58
