# Blender v2.82 (sub 7) OBJ File: 'barrrir.blend'
# www.blender.org
mtllib barrrir.mtl
o Concrete_Mesh
v -0.675064 0.000222 -0.286845
v -3.056398 0.000222 -0.286845
v -3.450029 1.025763 -0.117609
v -3.744580 0.000213 -0.280162
v -3.740579 0.096493 -0.280889
v -0.004466 0.000214 -0.279498
v -0.011184 0.098864 -0.282159
v -0.006624 0.920716 -0.117005
v -0.018714 0.297756 -0.125486
v -3.056398 0.074892 -0.286855
v -0.287018 1.027294 -0.117627
v -0.001635 0.289120 -0.112016
v -3.743217 0.294452 -0.124031
v -3.743837 0.920277 -0.117053
v -0.675064 0.000222 0.286845
v -3.056398 0.000222 0.286845
v -3.743460 0.921210 0.116990
v -3.442780 1.027579 0.117202
v -3.745778 0.000212 0.279522
v -3.740526 0.097670 0.280502
v -0.005864 0.000213 0.280807
v -0.011100 0.099491 0.281740
v -0.006282 0.920051 0.117010
v -3.743282 0.294744 0.123765
v -0.018532 0.297715 0.125418
v -0.001632 0.289478 0.111894
v -3.056398 0.074890 0.286854
v -0.276217 1.024469 0.118138
v -0.675064 0.074894 0.286859
v -0.675064 0.074888 -0.286845
v -1.127484 0.074888 -0.286845
v -1.127484 0.000222 -0.286845
v -1.127484 0.000222 0.286845
v -1.127484 0.074888 0.286845
v -2.605813 0.074888 -0.286845
v -2.605813 0.000222 -0.286845
v -2.605813 0.000222 0.286845
v -2.605813 0.074888 0.286845
vt 0.014220 0.538784
vt 0.014985 0.378196
vt 0.084655 0.565565
vt 0.082249 0.946394
vt 0.175452 0.870290
vt 0.178470 0.875285
vt 0.472414 0.868817
vt 0.015044 0.213853
vt 0.014204 0.053309
vt 0.084243 0.026472
vt 0.185779 0.272312
vt 0.015477 0.266774
vt 0.303765 0.272312
vt 0.689295 0.272312
vt 0.806801 0.272312
vt 0.982256 0.266823
vt 0.983017 0.377802
vt 0.015548 0.325156
vt 0.982266 0.325139
vt 0.983107 0.214363
vt 0.303765 0.319734
vt 0.689295 0.319734
vt 0.093730 0.601788
vt 0.905797 0.659724
vt 0.093483 0.659829
vt 0.082081 0.685536
vt 0.178440 0.756695
vt 0.175309 0.761644
vt 0.472371 0.763186
vt 0.019564 0.659283
vt 0.019658 0.602064
vt 0.014223 0.300262
vt 0.185779 0.300262
vt 0.983263 0.538783
vt 0.908733 0.565778
vt 0.806801 0.300262
vt 0.983259 0.300262
vt 0.806801 0.319734
vt 0.806801 0.291784
vt 0.983364 0.291784
vt 0.038311 0.685656
vt 0.038311 0.947021
vt 0.916535 0.682535
vt 0.960320 0.681870
vt 0.960320 0.943053
vt 0.916533 0.942764
vt 0.975529 0.659234
vt 0.906298 0.601581
vt 0.975571 0.602149
vt 0.185779 0.291784
vt 0.014114 0.291784
vt 0.821447 0.869977
vt 0.526291 0.865444
vt 0.526221 0.759934
vt 0.821324 0.755332
vt 0.678972 0.982087
vt 0.678974 0.904318
vt 0.769384 0.905804
vt 0.769246 0.980806
vt 0.908531 0.026230
vt 0.983249 0.053261
vt 0.222723 0.980603
vt 0.222806 0.905657
vt 0.315673 0.904309
vt 0.315672 0.982078
vt 0.303765 0.300262
vt 0.689295 0.300262
vt 0.185779 0.319734
vt 0.597399 0.982085
vt 0.396996 0.982079
vt 0.396998 0.904310
vt 0.597401 0.904316
vt 0.689295 0.291784
vt 0.303765 0.291784
vt 0.607520 0.982086
vt 0.607523 0.904316
vt 0.668853 0.904318
vt 0.668850 0.982087
vt 0.325794 0.982078
vt 0.325795 0.904309
vt 0.386876 0.902531
vt 0.386875 0.980300
vn 0.6932 0.5322 -0.4861
vn 0.4111 0.3178 -0.8544
vn -0.0541 0.7543 -0.6543
vn 0.5551 0.2393 0.7966
vn 0.9240 0.0618 0.3775
vn 0.4192 0.3097 0.8534
vn 0.6998 0.5258 0.4835
vn 0.1770 0.8370 0.5178
vn -0.3408 0.1341 0.9305
vn -0.0000 0.0902 0.9959
vn 0.0000 0.0888 0.9960
vn 0.3426 0.1635 0.9252
vn -0.7223 0.3159 0.6152
vn -0.8185 0.1147 -0.5629
vn 0.6567 0.3284 -0.6789
vn -0.5139 0.2403 -0.8235
vn -0.8313 0.2293 0.5063
vn 0.0000 0.0826 -0.9966
vn 0.0000 0.0809 -0.9967
vn -0.2800 0.6426 0.7132
vn -0.1790 0.5951 -0.7834
vn 0.9276 0.0466 -0.3708
vn -0.6049 0.3499 -0.7153
vn -0.6640 0.3129 0.6792
vn 0.6430 -0.4673 -0.6068
vn -0.5754 -0.5770 -0.5796
vn 0.5742 -0.5783 -0.5795
vn -0.4948 -0.6103 -0.6187
vn 0.3409 0.1701 -0.9246
vn 0.5738 -0.5788 0.5795
vn -0.6387 -0.4648 0.6132
vn 0.4986 -0.6072 0.6186
vn -0.5742 -0.5787 0.5790
vn 0.0000 0.0000 -1.0000
vn -0.3429 0.1268 -0.9308
vn 0.0000 -1.0000 -0.0000
vn 0.0000 0.0000 1.0000
vn 1.0000 0.0000 0.0000
vn -1.0000 0.0000 0.0000
usemtl lambert1
s 1
f 8/1/1 9/2/2 11/3/3
f 22/4/4 26/5/5 25/6/6
f 23/7/7 25/6/6 26/5/5
f 25/8/6 23/9/7 28/10/8
f 29/11/9 22/12/4 34/13/10
f 38/14/11 22/12/4 27/15/12
f 27/15/12 22/12/4 20/16/13
f 13/17/14 7/18/15 5/19/16
f 22/12/4 25/8/6 24/20/17
f 7/18/15 31/21/18 35/22/19
f 18/23/20 11/24/3 3/25/21
f 7/26/15 9/27/2 12/28/22
f 8/29/1 12/28/22 9/27/2
f 3/25/21 14/30/23 17/31/24 18/23/20
f 7/18/15 6/32/25 1/33/26
f 14/34/23 3/35/21 13/17/14
f 2/36/27 4/37/28 5/19/16 10/38/29
f 16/39/30 27/15/12 20/16/13 19/40/31
f 6/41/25 7/26/15 22/4/4 21/42/32
f 5/43/16 4/44/28 19/45/31 20/46/13
f 8/47/1 11/24/3 28/48/8 23/49/7
f 22/12/4 29/11/9 15/50/33 21/51/32
f 12/28/22 8/29/1 23/7/7 26/5/5
f 24/52/17 17/53/24 14/54/23 13/55/14
f 7/26/15 12/28/22 26/5/5 22/4/4
f 13/55/14 5/43/16 20/46/13 24/52/17
f 15/56/33 1/57/26 6/58/25 21/59/32
f 24/20/17 18/60/20 17/61/24
f 19/62/31 4/63/28 2/64/27 16/65/30
f 32/66/34 36/67/34 35/22/19 31/21/18
f 7/18/15 30/68/35 31/21/18
f 7/18/15 35/22/19 10/38/29
f 20/16/13 22/12/4 24/20/17
f 5/19/16 7/18/15 10/38/29
f 30/68/35 7/18/15 1/33/26
f 18/23/20 28/48/8 11/24/3
f 13/17/14 9/2/2 7/18/15
f 33/69/36 37/70/36 36/71/36 32/72/36
f 34/13/10 38/14/11 37/73/37 33/74/37
f 25/8/6 28/10/8 18/60/20 24/20/17
f 38/14/11 34/13/10 22/12/4
f 9/2/2 13/17/14 3/35/21 11/3/3
f 34/75/36 31/76/36 30/77/36 29/78/36
f 29/78/9 30/77/35 1/57/26 15/56/33
f 33/69/38 32/72/38 31/76/38 34/75/38
f 27/79/36 10/80/36 35/81/36 38/82/36
f 16/65/30 2/64/27 10/80/29 27/79/12
f 38/82/39 35/81/39 36/71/39 37/70/39
